<svg width="205" height="48" viewBox="0 0 205 48" fill="none" xmlns="http://www.w3.org/2000/svg">
<g filter="url(#filter0_d_134_20)">
<path d="M21.0312 27.5469C20.0625 28.6302 18.1615 29.7292 15.3281 30.8438C14.349 33.6458 13.0365 35.7083 11.3906 37.0312C9.75521 38.3646 8.20833 39.0312 6.75 39.0312C6.08333 39.0312 5.54167 38.8177 5.125 38.3906C4.71875 37.974 4.51562 37.4219 4.51562 36.7344C4.51562 34.4427 6.74479 32.5208 11.2031 30.9688C11.9948 26.2708 12.5781 23.0625 12.9531 21.3438C13.3281 19.6146 13.7604 18.2552 14.25 17.2656C14.7396 16.2656 15.4948 15.1146 16.5156 13.8125C17.5365 12.5 18.1771 11.6354 18.4375 11.2188C17.4271 11.7604 16.5729 12.0312 15.875 12.0312C15.4583 12.0312 14.9531 11.9062 14.3594 11.6562C13.7656 11.4062 13.2344 11.2812 12.7656 11.2812C11.9844 11.2812 11.2917 11.5781 10.6875 12.1719C10.0938 12.7552 9.79688 13.4219 9.79688 14.1719C9.79688 14.8177 10.0625 15.349 10.5938 15.7656C11.125 16.1719 11.3906 16.4583 11.3906 16.625C11.3906 16.7812 11.1562 17.1198 10.6875 17.6406C10.2188 18.1615 9.84375 18.4219 9.5625 18.4219C9.29167 18.4219 8.94792 18.1667 8.53125 17.6562C8.11458 17.1354 7.90625 16.4844 7.90625 15.7031C7.90625 14.1302 8.65104 12.5781 10.1406 11.0469C11.6302 9.50521 13.1354 8.73438 14.6562 8.73438C15.1562 8.73438 15.6979 8.875 16.2812 9.15625C16.8646 9.42708 17.3594 9.5625 17.7656 9.5625C18.3281 9.5625 18.9323 9.28646 19.5781 8.73438C20.3906 8.82812 20.7969 8.98438 20.7969 9.20312C20.7969 9.34896 20.5573 9.80208 20.0781 10.5625C19.6094 11.3125 19.1823 12.276 18.7969 13.4531C18.4219 14.6198 18.099 16.151 17.8281 18.0469L17.5938 19.6094C16.9271 24.3177 16.3438 27.5469 15.8438 29.2969C18.0833 28.5365 19.8125 27.3542 21.0312 25.75V27.5469ZM10.8438 32.375C7.4375 33.5833 5.73438 34.9896 5.73438 36.5938C5.73438 36.9167 5.83333 37.1823 6.03125 37.3906C6.23958 37.6094 6.5 37.7188 6.8125 37.7188C7.51042 37.7188 8.23438 37.2969 8.98438 36.4531C9.74479 35.6198 10.3646 34.2604 10.8438 32.375ZM32.7188 27.5469C31.3958 28.849 30.2083 29.8125 29.1562 30.4375C28.1042 31.0521 26.9427 31.3594 25.6719 31.3594C24.2552 31.3594 23.1094 30.9062 22.2344 30C21.3698 29.0938 20.9375 27.901 20.9375 26.4219C20.9375 24.2135 21.7031 22.2188 23.2344 20.4375C24.7656 18.6458 26.4635 17.75 28.3281 17.75C29.2969 17.75 30.0729 18 30.6562 18.5C31.2396 19 31.5312 19.6562 31.5312 20.4688C31.5312 22.625 29.2396 24.375 24.6562 25.7188C25.0729 27.75 26.1615 28.7656 27.9219 28.7656C28.6094 28.7656 29.2656 28.5833 29.8906 28.2188C30.5156 27.8438 31.4583 27.0208 32.7188 25.75V27.5469ZM24.5312 24.6562C27.1979 23.9062 28.5312 22.5208 28.5312 20.5C28.5312 19.5 28.1667 19 27.4375 19C26.75 19 26.0938 19.526 25.4688 20.5781C24.8438 21.6198 24.5312 22.9792 24.5312 24.6562ZM37.5312 18.3906C38.25 18.2031 38.974 18.0521 39.7031 17.9375C40.4323 17.8125 40.8698 17.75 41.0156 17.75C41.1198 17.75 41.1719 17.7917 41.1719 17.875C41.1719 18.0312 41.1302 18.1927 41.0469 18.3594C40.8802 18.8385 40.7969 19.2969 40.7969 19.7344C40.7969 20.276 41.1094 21.0156 41.7344 21.9531C42.3594 22.8906 42.6719 23.7604 42.6719 24.5625C42.6719 26.1562 41.9062 27.6927 40.375 29.1719C38.8542 30.651 37.276 31.3906 35.6406 31.3906C34.9323 31.3906 34.2865 31.2031 33.7031 30.8281C33.1198 30.4531 32.8281 30.0521 32.8281 29.625C32.8281 29.375 33.1146 28.901 33.6875 28.2031C34.2708 27.5052 34.6875 27.1562 34.9375 27.1562C35.2708 27.1562 35.5677 27.5833 35.8281 28.4375C36.0885 29.2917 36.5365 29.7188 37.1719 29.7188C37.8073 29.7188 38.401 29.4271 38.9531 28.8438C39.5156 28.25 39.7969 27.6146 39.7969 26.9375C39.7969 26.2812 39.4427 25.4062 38.7344 24.3125C38.026 23.2188 37.5573 22.3021 37.3281 21.5625C36.1198 23.5104 34.5885 25.5052 32.7344 27.5469H32.375V26.1406C34.9271 23.4219 36.6458 20.8385 37.5312 18.3906ZM50.5312 18.3906C51.25 18.2031 51.974 18.0521 52.7031 17.9375C53.4323 17.8125 53.8698 17.75 54.0156 17.75C54.1198 17.75 54.1719 17.7917 54.1719 17.875C54.1719 18.0312 54.1302 18.1927 54.0469 18.3594C53.8802 18.8385 53.7969 19.2969 53.7969 19.7344C53.7969 20.276 54.1094 21.0156 54.7344 21.9531C55.3594 22.8906 55.6719 23.7604 55.6719 24.5625C55.6719 26.1562 54.9062 27.6927 53.375 29.1719C51.8542 30.651 50.276 31.3906 48.6406 31.3906C47.9323 31.3906 47.2865 31.2031 46.7031 30.8281C46.1198 30.4531 45.8281 30.0521 45.8281 29.625C45.8281 29.375 46.1146 28.901 46.6875 28.2031C47.2708 27.5052 47.6875 27.1562 47.9375 27.1562C48.2708 27.1562 48.5677 27.5833 48.8281 28.4375C49.0885 29.2917 49.5365 29.7188 50.1719 29.7188C50.8073 29.7188 51.401 29.4271 51.9531 28.8438C52.5156 28.25 52.7969 27.6146 52.7969 26.9375C52.7969 26.2812 52.4427 25.4062 51.7344 24.3125C51.026 23.2188 50.5573 22.3021 50.3281 21.5625C49.1198 23.5104 47.5885 25.5052 45.7344 27.5469H45.375V26.1406C47.9271 23.4219 49.6458 20.8385 50.5312 18.3906ZM66.0938 11.6406C66.0938 14.1406 65.1719 15.3906 63.3281 15.3906C62.4323 15.3906 61.6667 15.1198 61.0312 14.5781C61.6354 13.6615 62.1042 12.6302 62.4375 11.4844C63.2604 11.9948 63.9219 12.25 64.4219 12.25C64.9844 12.25 65.5417 12.0469 66.0938 11.6406ZM66.4062 27.5469C63.9688 30.1094 62.1458 31.3906 60.9375 31.3906C60.2708 31.3906 59.7083 31.0521 59.25 30.375C58.7917 29.6875 58.5625 28.8281 58.5625 27.7969C58.5625 25.5781 59.3125 22.5052 60.8125 18.5781L64.7812 17.75H64.9688L63.4062 22.6406C62.7604 24.6615 62.4375 26.1042 62.4375 26.9688C62.4375 27.3125 62.5104 27.5938 62.6562 27.8125C62.8125 28.0208 63.0052 28.125 63.2344 28.125C63.6406 28.125 64.0469 27.9792 64.4531 27.6875C64.8698 27.3854 65.5208 26.7396 66.4062 25.75V27.5469ZM78.0938 27.5469C76.7604 28.8594 75.5365 29.8229 74.4219 30.4375C73.3177 31.0521 72.1615 31.3594 70.9531 31.3594C69.599 31.3594 68.4792 30.9219 67.5938 30.0469C66.7188 29.1615 66.2812 28.0417 66.2812 26.6875C66.2812 24.4688 67.0885 22.4219 68.7031 20.5469C70.3281 18.6615 72.0833 17.7188 73.9688 17.7188C74.8958 17.7188 75.651 17.9792 76.2344 18.5C76.8177 19.0104 77.1094 19.6771 77.1094 20.5C77.1094 20.7917 77.0521 21.0104 76.9375 21.1562C76.8333 21.3021 76.6302 21.4479 76.3281 21.5938L74.5156 22.4531C74.2969 22.5573 74.1354 22.6094 74.0312 22.6094C73.8854 22.6094 73.8125 22.5052 73.8125 22.2969C73.8125 22.2135 73.8438 21.9427 73.9062 21.4844C73.9688 21.0156 74 20.7292 74 20.625C74 20.1667 73.901 19.7969 73.7031 19.5156C73.5156 19.2344 73.2604 19.0938 72.9375 19.0938C72.1771 19.0938 71.4792 19.6562 70.8438 20.7812C70.2188 21.9062 69.9062 23.1875 69.9062 24.625C69.9062 25.8646 70.2031 26.8542 70.7969 27.5938C71.3906 28.3333 72.1823 28.7031 73.1719 28.7031C74.0156 28.7031 74.8073 28.4635 75.5469 27.9844C76.2969 27.4948 77.1458 26.75 78.0938 25.75V27.5469ZM94.7812 27.5469C93.1146 29.1302 91.9219 30.1615 91.2031 30.6406C90.4844 31.1198 89.7969 31.3594 89.1406 31.3594C87.4948 31.3594 86.7188 29.9062 86.8125 27C85.7708 28.4896 84.8073 29.5885 83.9219 30.2969C83.0469 31.0052 82.1406 31.3594 81.2031 31.3594C80.2865 31.3594 79.5052 30.9323 78.8594 30.0781C78.224 29.2135 77.9062 28.1562 77.9062 26.9062C77.9062 25.3438 78.3333 23.8542 79.1875 22.4375C80.0521 21.0208 81.1562 19.875 82.5 19C83.8438 18.125 85.0312 17.6875 86.0625 17.6875C87.3646 17.6875 88.276 18.2865 88.7969 19.4844L91.9844 17.7188H92.8594L91.4844 22.2969C90.776 24.599 90.4219 26.1771 90.4219 27.0312C90.4219 27.9271 90.7396 28.375 91.375 28.375C91.7812 28.375 92.2292 28.1615 92.7188 27.7344C93.2083 27.2969 93.8958 26.6354 94.7812 25.75V27.5469ZM83.3438 28.4062C84.3854 28.4062 85.3646 27.5208 86.2812 25.75C87.2083 23.9688 87.6719 22.3281 87.6719 20.8281C87.6719 20.2448 87.5417 19.7917 87.2812 19.4688C87.0208 19.1354 86.6719 18.9688 86.2344 18.9688C85.1927 18.9688 84.2031 19.8542 83.2656 21.625C82.3385 23.3958 81.875 25.026 81.875 26.5156C81.875 27.0781 82.0104 27.5365 82.2812 27.8906C82.5625 28.2344 82.9167 28.4062 83.3438 28.4062ZM111.297 28.1875L113.297 29.0312C113.943 29.3125 114.469 29.5052 114.875 29.6094C115.292 29.7031 115.688 29.75 116.062 29.75C117.792 29.75 119.177 28.6198 120.219 26.3594C121.271 24.0885 121.797 21.6562 121.797 19.0625C121.797 16.3229 121.13 14.1198 119.797 12.4531C118.474 10.776 116.74 9.9375 114.594 9.9375C112.875 9.9375 111.26 10.5573 109.75 11.7969C108.25 13.026 107.5 14.3281 107.5 15.7031C107.5 16.7344 107.938 17.4375 108.812 17.8125C109.188 17.9896 109.375 18.224 109.375 18.5156C109.375 18.8177 108.964 19.1458 108.141 19.5C107.328 19.8542 106.833 20.0312 106.656 20.0312C106.125 20.0312 105.656 19.724 105.25 19.1094C104.844 18.4844 104.641 17.7969 104.641 17.0469C104.641 15.0573 105.677 13.1719 107.75 11.3906C109.833 9.59896 112.542 8.70312 115.875 8.70312C119.062 8.70312 121.604 9.58333 123.5 11.3438C125.396 13.0938 126.344 15.4427 126.344 18.3906C126.344 20.6406 125.755 22.776 124.578 24.7969C123.411 26.8177 121.833 28.4219 119.844 29.6094C117.865 30.7969 115.766 31.3906 113.547 31.3906C111.682 31.3906 109.943 30.9844 108.328 30.1719C107.026 30.9844 105.896 31.3906 104.938 31.3906C104.396 31.3906 103.938 31.2344 103.562 30.9219C103.198 30.6094 103.016 30.2292 103.016 29.7812C103.016 29.0521 103.396 28.4375 104.156 27.9375C104.917 27.4375 105.87 27.1875 107.016 27.1875C107.828 27.1875 108.604 27.3177 109.344 27.5781C110 27.0365 110.448 26.3854 110.688 25.625C110.927 24.8646 111.167 23.5208 111.406 21.5938C111.646 19.6667 112.021 18.151 112.531 17.0469C113.042 15.9427 113.792 15.0208 114.781 14.2812C115.781 13.5312 116.786 13.099 117.797 12.9844L118.406 13.8125C117.76 14.4688 117.276 15.1354 116.953 15.8125C116.641 16.4896 116.354 17.9479 116.094 20.1875C115.844 22.4167 115.354 24.0938 114.625 25.2188C113.906 26.3333 112.797 27.3229 111.297 28.1875ZM143.781 27.5469C142.115 29.1302 140.922 30.1615 140.203 30.6406C139.484 31.1198 138.797 31.3594 138.141 31.3594C136.495 31.3594 135.719 29.9062 135.812 27C134.771 28.4896 133.807 29.5885 132.922 30.2969C132.047 31.0052 131.141 31.3594 130.203 31.3594C129.286 31.3594 128.505 30.9323 127.859 30.0781C127.224 29.2135 126.906 28.1562 126.906 26.9062C126.906 25.3438 127.333 23.8542 128.188 22.4375C129.052 21.0208 130.156 19.875 131.5 19C132.844 18.125 134.031 17.6875 135.062 17.6875C136.365 17.6875 137.276 18.2865 137.797 19.4844L140.984 17.7188H141.859L140.484 22.2969C139.776 24.599 139.422 26.1771 139.422 27.0312C139.422 27.9271 139.74 28.375 140.375 28.375C140.781 28.375 141.229 28.1615 141.719 27.7344C142.208 27.2969 142.896 26.6354 143.781 25.75V27.5469ZM132.344 28.4062C133.385 28.4062 134.365 27.5208 135.281 25.75C136.208 23.9688 136.672 22.3281 136.672 20.8281C136.672 20.2448 136.542 19.7917 136.281 19.4688C136.021 19.1354 135.672 18.9688 135.234 18.9688C134.193 18.9688 133.203 19.8542 132.266 21.625C131.339 23.3958 130.875 25.026 130.875 26.5156C130.875 27.0781 131.01 27.5365 131.281 27.8906C131.562 28.2344 131.917 28.4062 132.344 28.4062ZM159.125 27.5469C156.719 30.0885 154.656 31.3594 152.938 31.3594C152.24 31.3594 151.677 31.1146 151.25 30.625C150.823 30.1354 150.609 29.4792 150.609 28.6562C150.609 27.5417 151.068 25.8385 151.984 23.5469C152.474 22.3177 152.719 21.5365 152.719 21.2031C152.719 20.8698 152.589 20.7031 152.328 20.7031C152.182 20.7031 151.99 20.776 151.75 20.9219C151.531 21.0677 151.276 21.2708 150.984 21.5312C150.724 21.7708 150.432 22.0625 150.109 22.4062C149.828 22.6979 149.526 23.0312 149.203 23.4062L148.328 24.4219C147.943 24.8906 147.703 25.3854 147.609 25.9062C147.453 26.7917 147.349 27.6042 147.297 28.3438C147.266 28.8958 147.25 29.6406 147.25 30.5781L143.797 31.3906C143.682 29.9844 143.625 28.9375 143.625 28.25C143.625 26.5729 143.818 24.9844 144.203 23.4844C144.599 21.9844 145.229 20.2969 146.094 18.4219L149.906 17.6875C149.104 19.8438 148.578 21.5417 148.328 22.7812C150.036 20.875 151.391 19.5573 152.391 18.8281C153.401 18.0885 154.297 17.7188 155.078 17.7188C155.609 17.7188 156.052 17.9219 156.406 18.3281C156.76 18.724 156.938 19.224 156.938 19.8281C156.938 20.8281 156.49 22.474 155.594 24.7656C154.979 26.3385 154.672 27.3594 154.672 27.8281C154.672 28.4531 154.927 28.7656 155.438 28.7656C156.198 28.7656 157.427 27.7604 159.125 25.75V27.5469ZM166.5 11.6406C166.5 14.1406 165.578 15.3906 163.734 15.3906C162.839 15.3906 162.073 15.1198 161.438 14.5781C162.042 13.6615 162.51 12.6302 162.844 11.4844C163.667 11.9948 164.328 12.25 164.828 12.25C165.391 12.25 165.948 12.0469 166.5 11.6406ZM166.812 27.5469C164.375 30.1094 162.552 31.3906 161.344 31.3906C160.677 31.3906 160.115 31.0521 159.656 30.375C159.198 29.6875 158.969 28.8281 158.969 27.7969C158.969 25.5781 159.719 22.5052 161.219 18.5781L165.188 17.75H165.375L163.812 22.6406C163.167 24.6615 162.844 26.1042 162.844 26.9688C162.844 27.3125 162.917 27.5938 163.062 27.8125C163.219 28.0208 163.411 28.125 163.641 28.125C164.047 28.125 164.453 27.9792 164.859 27.6875C165.276 27.3854 165.927 26.7396 166.812 25.75V27.5469ZM178.5 27.5469C177.177 28.849 175.99 29.8125 174.938 30.4375C173.885 31.0521 172.724 31.3594 171.453 31.3594C170.036 31.3594 168.891 30.9062 168.016 30C167.151 29.0938 166.719 27.901 166.719 26.4219C166.719 24.2135 167.484 22.2188 169.016 20.4375C170.547 18.6458 172.245 17.75 174.109 17.75C175.078 17.75 175.854 18 176.438 18.5C177.021 19 177.312 19.6562 177.312 20.4688C177.312 22.625 175.021 24.375 170.438 25.7188C170.854 27.75 171.943 28.7656 173.703 28.7656C174.391 28.7656 175.047 28.5833 175.672 28.2188C176.297 27.8438 177.24 27.0208 178.5 25.75V27.5469ZM170.312 24.6562C172.979 23.9062 174.312 22.5208 174.312 20.5C174.312 19.5 173.948 19 173.219 19C172.531 19 171.875 19.526 171.25 20.5781C170.625 21.6198 170.312 22.9792 170.312 24.6562ZM188.844 27.5469C187.427 28.849 186.182 29.8125 185.109 30.4375C184.047 31.0521 183.031 31.3594 182.062 31.3594C180.948 31.3594 180.047 30.9271 179.359 30.0625C178.682 29.1979 178.344 28.0365 178.344 26.5781C178.344 24.3906 178.818 21.7656 179.766 18.7031C180.714 15.6406 181.865 12.8177 183.219 10.2344L187.188 8.76562C187.312 8.72396 187.406 8.70312 187.469 8.70312C187.771 8.70312 188.016 8.92708 188.203 9.375C188.401 9.8125 188.5 10.4062 188.5 11.1562C188.5 13.2812 188.01 15.3385 187.031 17.3281C186.052 19.3177 184.521 21.4427 182.438 23.7031C182.354 24.7865 182.312 25.5312 182.312 25.9375C182.312 26.8438 182.479 27.5625 182.812 28.0938C183.146 28.625 183.589 28.8906 184.141 28.8906C184.703 28.8906 185.302 28.6875 185.938 28.2812C186.573 27.875 187.542 27.0312 188.844 25.75V27.5469ZM182.859 21.4375C184.182 19.9688 185.255 18.3229 186.078 16.5C186.901 14.6771 187.312 13.1094 187.312 11.7969C187.312 11.4115 187.255 11.1042 187.141 10.875C187.026 10.6354 186.88 10.5156 186.703 10.5156C186.318 10.5156 185.755 11.474 185.016 13.3906C184.286 15.3073 183.568 17.9896 182.859 21.4375ZM200.531 27.5469C199.208 28.849 198.021 29.8125 196.969 30.4375C195.917 31.0521 194.755 31.3594 193.484 31.3594C192.068 31.3594 190.922 30.9062 190.047 30C189.182 29.0938 188.75 27.901 188.75 26.4219C188.75 24.2135 189.516 22.2188 191.047 20.4375C192.578 18.6458 194.276 17.75 196.141 17.75C197.109 17.75 197.885 18 198.469 18.5C199.052 19 199.344 19.6562 199.344 20.4688C199.344 22.625 197.052 24.375 192.469 25.7188C192.885 27.75 193.974 28.7656 195.734 28.7656C196.422 28.7656 197.078 28.5833 197.703 28.2188C198.328 27.8438 199.271 27.0208 200.531 25.75V27.5469ZM192.344 24.6562C195.01 23.9062 196.344 22.5208 196.344 20.5C196.344 19.5 195.979 19 195.25 19C194.562 19 193.906 19.526 193.281 20.5781C192.656 21.6198 192.344 22.9792 192.344 24.6562Z" fill="#DA006C" fill-opacity="0.7" shape-rendering="crispEdges"/>
</g>
<defs>
<filter id="filter0_d_134_20" x="0.515625" y="8.70312" width="204.016" height="38.3281" filterUnits="userSpaceOnUse" color-interpolation-filters="sRGB">
<feFlood flood-opacity="0" result="BackgroundImageFix"/>
<feColorMatrix in="SourceAlpha" type="matrix" values="0 0 0 0 0 0 0 0 0 0 0 0 0 0 0 0 0 0 127 0" result="hardAlpha"/>
<feOffset dy="4"/>
<feGaussianBlur stdDeviation="2"/>
<feComposite in2="hardAlpha" operator="out"/>
<feColorMatrix type="matrix" values="0 0 0 0 1 0 0 0 0 0 0 0 0 0 0.498039 0 0 0 0.3 0"/>
<feBlend mode="normal" in2="BackgroundImageFix" result="effect1_dropShadow_134_20"/>
<feBlend mode="normal" in="SourceGraphic" in2="effect1_dropShadow_134_20" result="shape"/>
</filter>
</defs>
</svg>
